# xmcd CD database file
#
# Track frame offsets:
#	182
#	16942
#	36195
#	51057
#	72452
#	92627
#	109907
#	133577
#	152135
#	169360
#	187840
#	207750
#	225505
#	241507
#
# Disc length: 3532 seconds
#
# Revision: 5
# Processed by: cddbd v1.5.2PL0 Copyright (c) Steve Scherf et al.
# Submitted via: CDex 1.70beta2
#
DISCID=b00dca0e
DTITLE=George Benson - The Best of George Benson
DYEAR=1986
DGENRE=Jazz
TTITLE0=Give Me The Night
TTITLE1=Love Ballad
TTITLE2=This Masquerade
TTITLE3=Love X Love
TTITLE4=I Just Wanna Hang Around You
TTITLE5=Turn Your Love Around
TTITLE6=Inside Love (So Personal)
TTITLE7=20/20
TTITLE8=Everything Must Change
TTITLE9=Never Give Up On A Good Thing
TTITLE10=Kisses In The Moonlight
TTITLE11=Lady Love Me (One More Time)
TTITLE12=Lady Blue
TTITLE13=On Broadway
EXTD=YEAR: 1986
EXTT0=
EXTT1=
EXTT2=
EXTT3=
EXTT4=
EXTT5=
EXTT6=
EXTT7=
EXTT8=
EXTT9=
EXTT10=
EXTT11=
EXTT12=
EXTT13=
PLAYORDER=
